<svg>
  <symbol id="search" xmlns="http://www.w3.org/2000/svg" viewBox="0 0 512 512">
      <path d="M416 208c0 45.9-14.9 88.3-40 122.7L486.6 441.4 509.3 464 464 509.3l-22.6-22.6L330.7
      376c-34.4 25.2-76.8 40-122.7 40C93.1 416 0 322.9 0 208S93.1 0 208 0S416 93.1 416 208zM208
      352a144 144 0 1 0 0-288 144 144 0 1 0 0 288z"/>
  </symbol>
  <symbol id="arrow-to-top" xmlns="http://www.w3.org/2000/svg" viewBox="0 0 384 512">
      <path d="M214.6 41.4c-12.5-12.5-32.8-12.5-45.3 0l-160 160c-12.5 12.5-12.5 32.8 0
      45.3s32.8 12.5 45.3 0L160 141.2V448c0 17.7 14.3 32 32 32s32-14.3 32-32V141.2L329.4
      246.6c12.5 12.5 32.8 12.5 45.3 0s12.5-32.8 0-45.3l-160-160z"/>
  </symbol>
  <symbol id="users-medical" xmlns="http://www.w3.org/2000/svg" viewBox="0 0 640 512">
    <path d="M208 80A64 64 0 1 0 80 80a64 64 0 1 0 128 0zM64 80a80 80 0 1 1 160 0A80 80 0 1 1 64
    80zM320 304a80 80 0 1 0 0-160 80 80 0 1 0 0 160zm0-176a96 96 0 1 1 0 192 96 96 0 1 1 0-192zM261.3
    368C196.5 368 144 420.5 144 485.3c0 5.9 4.8 10.7 10.7 10.7h310c1 5.7 2.9 11.1 5.8 16H154.7c-14.7
    0-26.7-11.9-26.7-26.7C128 411.7 187.7 352 261.3 352H378.7c8.1 0 16.1 .7 23.8 2.1c-3.5 4.4-6.3 9.5-8.1
    14.9c-5.1-.7-10.4-1-15.7-1H261.3zM512 144a64 64 0 1 0 0-128 64 64 0 1 0 0 128zM512 0a80 80 0 1 1 0 160A80
    80 0 1 1 512 0zm24 208H447c-.7-5.4-1.7-10.8-3-16h92c57.4 0 104 46.6 104 104c0 4.4-3.6 8-8
    8s-8-3.6-8-8c0-48.6-39.4-88-88-88zm-343 0H104c-48.6 0-88 39.4-88 88c0 4.4-3.6 8-8 8s-8-3.6-8-8c0-57.4
    46.6-104 104-104h92c-1.3 5.2-2.4 10.6-3 16zM504 312v56c0 4.4-3.6 8-8 8H440c-4.4 0-8 3.6-8 8v32c0 4.4 3.6 8
    8 8h56c4.4 0 8 3.6 8 8v56c0 4.4 3.6 8 8 8h32c4.4 0 8-3.6 8-8V432c0-4.4 3.6-8 8-8h56c4.4 0 8-3.6
    8-8V384c0-4.4-3.6-8-8-8H560c-4.4 0-8-3.6-8-8V312c0-4.4-3.6-8-8-8H512c-4.4 0-8 3.6-8 8zm8-24h32c13.3 0
    24 10.7 24 24v48h48c13.3 0 24 10.7 24 24v32c0 13.3-10.7 24-24 24H568v48c0 13.3-10.7 24-24 24H512c-13.3
    0-24-10.7-24-24V440H440c-13.3 0-24-10.7-24-24V384c0-13.3 10.7-24 24-24h48V312c0-13.3 10.7-24 24-24z"/>
  </symbol>
  <symbol id="phone-missed" xmlns="http://www.w3.org/2000/svg" viewBox="0 0 640 512">
      <path d="M120 0H232c13.3 0 24 10.7 24 24s-10.7 24-24 24H177.9l55.4 55.4C254.2 124.3
      282.5 136 312 136s57.8-11.7 78.6-32.6L487 7c9.4-9.4 24.6-9.4 33.9 0s9.4 24.6 0 33.9l-96.4
      96.4C394.7 167.2 354.2 184 312 184s-82.7-16.8-112.6-46.6L144 81.9V136c0 13.3-10.7
      24-24 24s-24-10.7-24-24V24c0-13.3 10.7-24 24-24zM448 392v49.3c0 3.9 2.8 7.2 6.6 7.9l85.8
      15.6c3.7 .7 7.4-1.3 8.8-4.8l24.7-58.8c7.4-17.6 2.5-30.9-4.4-36.9C520 321.8 432.8 272
      320 272s-200 49.8-249.5 92.3c-6.9 5.9-11.8 19.3-4.4 36.9L90.8 460c1.5 3.5 5.1 5.4 8.8
      4.8l85.8-15.6c3.8-.7 6.6-4 6.6-7.9V392c0-19.6 11.9-37.3 30.2-44.6c62.8-25.1 132.9-25.1
      195.7 0C436 354.7 448 372.4 448 392zm-48 49.3V392c-51.4-20.5-108.6-20.5-160 0v49.3c0
      27.1-19.4 50.3-46 55.1L108.2 512c-25.8 4.7-51.4-9.2-61.6-33.4L21.8 419.8c-13.5-32-8.9-69.3
      17.4-91.9C95 280 192.9 224 320 224s225 56 280.8 103.9c26.3 22.6 30.9 59.9 17.4 91.9l-24.8
      58.8c-10.2 24.2-35.8 38.1-61.6 33.4L446 496.4c-26.6-4.8-46-28-46-55.1z"/>
  </symbol>
  <symbol id="phone-arrow-right" xmlns="http://www.w3.org/2000/svg" viewBox="0 0 512 512">
      <path d="M329 286.7c11.3-13.8 30.3-18.5 46.7-11.4l112 48c17.6 7.5 27.4 26.5 23.4 45.1l-24 112c-4
      18.4-20.3 31.6-39.1 31.6l0 0c-6.1 0-12.2-.1-18.2-.4l-.1 0 0 0c-10-.4-19.8-1.1-29.6-2.2C175.2 485.6
      0 295.2 0 64v0C0 45.1 13.2 28.8 31.6 24.9l112-24c18.7-4 37.6 5.8 45.1 23.4l48 112c7 16.4 2.4
      35.4-11.4 46.7l-40.6 33.2c26.7 46 65.1 84.4 111.1 111.1L329 286.7zm133.8 78.1l-100.4-43L333
      357.6c-14.9 18.2-40.8 22.9-61.2 11.1c-53.3-30.9-97.7-75.3-128.6-128.6c-11.8-20.4-7.1-46.3
      11.1-61.2l35.9-29.4-43-100.4L48.1 70.5C51.5 286.2 225.8 460.5 441.5 464l21.3-99.2zM425 7l80
      80c9.4 9.4 9.4 24.6 0 33.9l-80 80c-9.4 9.4-24.6 9.4-33.9 0s-9.4-24.6 0-33.9l39-39H312c-13.3
      0-24-10.7-24-24s10.7-24 24-24H430.1L391 41c-9.4-9.4-9.4-24.6 0-33.9s24.6-9.4 33.9 0z"/>
  </symbol>
  <symbol id="smile" xmlns="http://www.w3.org/2000/svg" viewBox="0 0 512 512">
      <path d="M464 256A208 208 0 1 0 48 256a208 208 0 1 0 416 0zM0 256a256 256 0 1 1 512 0A256
      256 0 1 1 0 256zm177.6 62.1C192.8 334.5 218.8 352 256 352s63.2-17.5 78.4-33.9c9-9.7
      24.2-10.4 33.9-1.4s10.4 24.2 1.4 33.9c-22 23.8-60 49.4-113.6
      49.4s-91.7-25.5-113.6-49.4c-9-9.7-8.4-24.9 1.4-33.9s24.9-8.4 33.9 1.4zM144.4 208a32 32 0
      1 1 64 0 32 32 0 1 1 -64 0zm192-32a32 32 0 1 1 0 64 32 32 0 1 1 0-64z"/>
  </symbol>
  <symbol id="images-user" xmlns="http://www.w3.org/2000/svg" viewBox="0 0 576 512">
    <path d="M560 48V368H458L416 256H256L214 368H112V48H560zM464 384h96 16V368 48 32H560 112 96V48 368v16h16 96
    17.1H446.9 464zm-23.1-16H231.1l36-96H404.9l36 96zM64 128H16 0v16V464v16H16 464h16V464
    416H464v48H16V144H64V128zm224 32a48 48 0 1 1 96 0 48 48 0 1 1 -96 0zm48 64a64 64 0 1 0 0-128 64 64 0 1 0 0 128z"/>
  </symbol>
  <symbol id="eye" xmlns="http://www.w3.org/2000/svg" viewBox="0 0 576 512">
     <path d="M288 144a110.94 110.94 0 0 0-31.24 5 55.4 55.4 0 0 1 7.24 27 56 56 0 0 1-56
     56 55.4 55.4 0 0 1-27-7.24A111.71 111.71 0 1 0 288 144zm284.52 97.4C518.29 135.59
     410.93 64 288 64S57.68 135.64 3.48 241.41a32.35 32.35 0 0 0 0 29.19C57.71 376.41
     165.07 448 288 448s230.32-71.64 284.52-177.41a32.35 32.35 0 0 0 0-29.19zM288
     400c-98.65 0-189.09-55-237.93-144C98.91 167 189.34 112 288 112s189.09 55 237.93
     144C477.1 345 386.66 400 288 400z"/>
  </symbol>
  <symbol id="mapPin" xmlns="http://www.w3.org/2000/svg" viewBox="0 0 384 512">
    <path d="M172.268 501.67C26.97 291.031 0 269.413 0 192 0 85.961 85.961 0 192 0s192 85.961 192 192c0 77.413-26.97 99.031-172.268 309.67-9.535 13.774-29.93 13.773-39.464 0zM192 272c44.183 0 80-35.817 80-80s-35.817-80-80-80-80 35.817-80 80 35.817 80 80 80z"/>
  </symbol>

  <symbol id="facebook" xmlns="http://www.w3.org/2000/svg" viewBox="0 0 50 50" >
    <path d="M 25 3 C 12.861562 3 3 12.861562 3 25 C 3 36.019135 11.127533 45.138355 21.712891 46.728516
    L 22.861328 46.902344 L 22.861328 29.566406 L 17.664062 29.566406 L 17.664062 26.046875 L 22.861328
    26.046875 L 22.861328 21.373047 C 22.861328 18.494965 23.551973 16.599417 24.695312 15.410156 C
    25.838652 14.220896 27.528004 13.621094 29.878906 13.621094 C 31.758714 13.621094 32.490022 13.734993
    33.185547 13.820312 L 33.185547 16.701172 L 30.738281 16.701172 C 29.349697 16.701172 28.210449
    17.475903 27.619141 18.507812 C 27.027832 19.539724 26.84375 20.771816 26.84375 22.027344 L 26.84375
    26.044922 L 32.966797 26.044922 L 32.421875 29.564453 L 26.84375 29.564453 L 26.84375 46.929688 L
    27.978516 46.775391 C 38.71434 45.319366 47 36.126845 47 25 C 47 12.861562 37.138438 3 25 3 z M 25
    5 C 36.057562 5 45 13.942438 45 25 C 45 34.729791 38.035799 42.731796 28.84375 44.533203 L 28.84375
    31.564453 L 34.136719 31.564453 L 35.298828 24.044922 L 28.84375 24.044922 L 28.84375 22.027344 C
    28.84375 20.989871 29.033574 20.060293 29.353516 19.501953 C 29.673457 18.943614 29.981865 18.701172
    30.738281 18.701172 L 35.185547 18.701172 L 35.185547 12.009766 L 34.318359 11.892578 C 33.718567
    11.811418 32.349197 11.621094 29.878906 11.621094 C 27.175808 11.621094 24.855567 12.357448 23.253906
    14.023438 C 21.652246 15.689426 20.861328 18.170128 20.861328 21.373047 L 20.861328 24.046875 L
    15.664062 24.046875 L 15.664062 31.566406 L 20.861328 31.566406 L 20.861328 44.470703 C 11.816995
    42.554813 5 34.624447 5 25 C 5 13.942438 13.942438 5 25 5 z"/>
  </symbol>

  <symbol id="instagram" xmlns="http://www.w3.org/2000/svg" viewBox="0 0 50 50">
  <path d="M 16 3 C 8.8324839 3 3 8.8324839 3 16 L 3 34 C 3 41.167516 8.8324839 47 16 47 L 34 47 C
  41.167516 47 47 41.167516 47 34 L 47 16 C 47 8.8324839 41.167516 3 34 3 L 16 3 z M 16 5 L 34 5 C
  40.086484 5 45 9.9135161 45 16 L 45 34 C 45 40.086484 40.086484 45 34 45 L 16 45 C 9.9135161 45 5
  40.086484 5 34 L 5 16 C 5 9.9135161 9.9135161 5 16 5 z M 37 11 A 2 2 0 0 0 35 13 A 2 2 0 0 0 37 15
  A 2 2 0 0 0 39 13 A 2 2 0 0 0 37 11 z M 25 14 C 18.936712 14 14 18.936712 14 25 C 14 31.063288
  18.936712 36 25 36 C 31.063288 36 36 31.063288 36 25 C 36 18.936712 31.063288 14 25 14 z M 25 16 C
  29.982407 16 34 20.017593 34 25 C 34 29.982407 29.982407 34 25 34 C 20.017593 34 16 29.982407 16 25
  C 16 20.017593 20.017593 16 25 16 z"/>
  </symbol>

  <symbol id="phone" xmlns="http://www.w3.org/2000/svg" viewBox="0 0 512 512">
    <path d="M290.3 210.3c-3.1 3.1-3.1 8.2 0 11.3s8.2 3.1 11.3 0L496 27.3V152c0 4.4
    3.6 8 8 8s8-3.6 8-8V8c0-4.4-3.6-8-8-8H360c-4.4 0-8 3.6-8 8s3.6 8 8 8H484.7L290.3
    210.3zm7.5 172.1c6.6 3.1 14.6 1.3 19.2-4.3l40.4-49.3c6.7-8.2 18-11 27.8-7l96
    40c11.1 4.6 17.1 16.8 13.9 28.5l-24 88C468.3 488.8 458.8 496 448 496C209.4 496
    16 302.6 16 64c0-10.8 7.2-20.3 17.7-23.2l88-24c11.6-3.2 23.8 2.8 28.5 13.9l40
    96c4.1 9.8 1.3 21.1-7 27.8l-49.3 40.4c-5.7 4.7-7.5 12.6-4.3 19.2c34.8 73.8 94.5
    133.5 168.3 168.3zM345 318.7L304.7 368C234.2 334.7 177.2 277.7 144 207.3L193.3
    167c13.7-11.2 18.4-30 11.6-46.3l-40-96c-7.7-18.6-28-28.5-47.4-23.2l-88 24C12.1
    30.2 0 46 0 64C0 311.4 200.6 512 448 512c18 0 33.8-12.1
    38.6-29.5l24-88c5.3-19.4-4.6-39.7-23.2-47.4l-96-40c-16.3-6.8-35.2-2.1-46.3 11.6z"/>
  </symbol>

  <symbol id="messenger" xmlns="http://www.w3.org/2000/svg" viewBox="0 0 512 512">
    <path d="M256.55 8C116.52 8 8 110.34 8 248.57c0 72.3 29.71 134.78 78.07 177.94 8.35
    7.51 6.63 11.86 8.05 58.23A19.92 19.92 0 0 0 122 502.31c52.91-23.3 53.59-25.14
    62.56-22.7C337.85 521.8 504 423.7 504 248.57 504 110.34 396.59 8 256.55 8zm149.24
    185.13l-73 115.57a37.37 37.37 0 0 1-53.91 9.93l-58.08-43.47a15 15 0 0 0-18 0l-78.37
    59.44c-10.46 7.93-24.16-4.6-17.11-15.67l73-115.57a37.36 37.36 0 0 1 53.91-9.93l58.06
    43.46a15 15 0 0 0 18 0l78.41-59.38c10.44-7.98 24.14 4.54 17.09 15.62z"/>
  </symbol>
  <symbol id="admin" xmlns="http://www.w3.org/2000/svg" viewBox="0 0 576 512">
    <path d="M264 72a24 24 0 1 1 48 0 24 24 0 1 1 -48 0zm29.9 39.6l75.8 151.6 8.9
    17.7L394 268.5l122.2-97.7c1.1 .6 2.3 1.2 3.5 1.8L466.6 464H109.4l-53-291.5c1.2-.5
    2.3-1.1 3.5-1.8L182 268.5l15.5 12.4 8.9-17.7 75.8-151.6c1.9 .3 3.9 .4 5.9 .4s4-.1
    5.9-.4zM504 160L396.8 245.8 384 256l-7.3-14.6L309 106c11.4-7 19-19.7
    19-34c0-22.1-17.9-40-40-40s-40 17.9-40 40c0 14.4 7.6 27 19 34L199.3 241.4 192
    256l-12.8-10.2L72 160c5-6.7 8-15 8-24c0-22.1-17.9-40-40-40S0 113.9 0 136s17.9 40
    40 40l.7 0L96 480H480l55.3-304c.2 0 .5 0 .7 0c22.1 0 40-17.9 40-40s-17.9-40-40-40s-40
    17.9-40 40c0 9 3 17.3 8 24zM40 112a24 24 0 1 1 0 48 24 24 0 1 1 0-48zm472 24a24 24 0 1
    1 48 0 24 24 0 1 1 -48 0z"/>
  </symbol>
  <symbol id="logout" xmlns="http://www.w3.org/2000/svg" viewBox="0 0 512 512">
    <path d="M509.7 261.7c3.1-3.1 3.1-8.2 0-11.3l-136-136c-3.1-3.1-8.2-3.1-11.3 0s-3.1 8.2
    0 11.3L484.7 248 168 248c-4.4 0-8 3.6-8 8s3.6 8 8 8l316.7 0L362.3 386.3c-3.1 3.1-3.1 8.2
    0 11.3s8.2 3.1 11.3 0l136-136zM184 48c4.4 0 8-3.6 8-8s-3.6-8-8-8L88 32C39.4 32 0 71.4 0
    120L0 392c0 48.6 39.4 88 88 88l96 0c4.4 0 8-3.6 8-8s-3.6-8-8-8l-96 0c-39.8
    0-72-32.2-72-72l0-272c0-39.8 32.2-72 72-72l96 0z"/>
  </symbol>
  <symbol id="login" xmlns="http://www.w3.org/2000/svg" viewBox="0 0 512 512">
    <path d="M213.7 114.3l136 136c3.1 3.1 3.1 8.2 0 11.3l-136 136c-3.1 3.1-8.2 3.1-11.3
    0s-3.1-8.2 0-11.3L324.7 264 8 264c-4.4 0-8-3.6-8-8s3.6-8 8-8l316.7 0L202.3
    125.7c-3.1-3.1-3.1-8.2 0-11.3s8.2-3.1 11.3 0zM328 464l96 0c39.8 0 72-32.2
    72-72l0-272c0-39.8-32.2-72-72-72l-96 0c-4.4 0-8-3.6-8-8s3.6-8 8-8l96 0c48.6 0
    88 39.4 88 88l0 272c0 48.6-39.4 88-88 88l-96 0c-4.4 0-8-3.6-8-8s3.6-8 8-8z"/>
  </symbol>
  <symbol id="trash" xmlns="http://www.w3.org/2000/svg" viewBox="0 0 448 512">
    <path d="M157.4 27.3L134.4 64H313.6l-23-36.7c-4.4-7-12.1-11.3-20.4-11.3H177.7c-8.3 0-16 4.3-20.4 11.3zM115.6
    64l28.2-45.2C151.1 7.1 163.9 0 177.7 0h92.5c13.8 0 26.6 7.1 33.9 18.8L332.4 64H440c4.4 0 8 3.6 8 8s-3.6 8-8
    8H8c-4.4 0-8-3.6-8-8s3.6-8 8-8H115.6zM40 112c4.4 0 8 3.6 8 8V440c0 30.9 25.1 56 56 56H344c30.9 0 56-25.1
    56-56V120c0-4.4 3.6-8 8-8s8 3.6 8 8V440c0 39.8-32.2 72-72 72H104c-39.8 0-72-32.2-72-72V120c0-4.4 3.6-8 8-8zm96
    48V416c0 4.4-3.6 8-8 8s-8-3.6-8-8V160c0-4.4 3.6-8 8-8s8 3.6 8 8zm96 0V416c0 4.4-3.6 8-8 8s-8-3.6-8-8V160c0-4.4
    3.6-8 8-8s8 3.6 8 8zm96 0V416c0 4.4-3.6 8-8 8s-8-3.6-8-8V160c0-4.4 3.6-8 8-8s8 3.6 8 8z"/>
  </symbol>
  <symbol id="archive" xmlns="http://www.w3.org/2000/svg" viewBox="0 0 512 512">
    <path d="M496 48H16v80H32 48 464h16 16V48zm-16 96H464 48 32 16 0V128 48 32H16 496h16V48v80 16H496
    480zM160 224h8H344h8v16h-8H168h-8V224zm304-48h16V464v16H464 48 32V464 176H48V464H464V176z"/>
  </symbol>
  <symbol id="edit" xmlns="http://www.w3.org/2000/svg" viewBox="0 0 512 512">
    <path d="M442.3 143l47-47L416 22.6l-47 47L442.3 143zM431 154.3L357.7 81 174.4 264.2 150 362l97.8-24.5L431
    154.3zM352 64l5.7-5.7 47-47L416 0l11.3 11.3 73.4 73.4L512 96l-11.3 11.3-47 47L448 160l-5.7 5.7L256 352
    145.6 379.6 128 384l4.4-17.6L160 256 346.3 69.7 352 64zM0 72c0-4.4 3.6-8
    8-8H216h8V80h-8H16V496H432V296v-8h16v8V504c0 4.4-3.6 8-8 8H8c-4.4 0-8-3.6-8-8V72z"/>
  </symbol>
  <symbol id="hide" xmlns="http://www.w3.org/2000/svg" viewBox="0 0 640 512">
    <path d="M634 471L36 3.51A16 16 0 0 0 13.51 6l-10 12.49A16 16 0 0 0 6 41l598
    467.49a16 16 0 0 0 22.49-2.49l10-12.49A16 16 0 0 0 634 471zM296.79
    146.47l134.79 105.38C429.36 191.91 380.48 144 320 144a112.26 112.26 0 0
    0-23.21 2.47zm46.42 219.07L208.42 260.16C210.65 320.09 259.53 368 320
    368a113 113 0 0 0 23.21-2.46zM320 112c98.65 0 189.09 55 237.93 144a285.53
    285.53 0 0 1-44 60.2l37.74 29.5a333.7 333.7 0 0 0 52.9-75.11 32.35 32.35 0 0
    0 0-29.19C550.29 135.59 442.93 64 320 64c-36.7 0-71.71 7-104.63 18.81l46.41
    36.29c18.94-4.3 38.34-7.1 58.22-7.1zm0
    288c-98.65 0-189.08-55-237.93-144a285.47 285.47 0 0 1
    44.05-60.19l-37.74-29.5a333.6 333.6 0 0 0-52.89 75.1 32.35 32.35 0 0 0 0
    29.19C89.72 376.41 197.08 448 320 448c36.7 0 71.71-7.05
    104.63-18.81l-46.41-36.28C359.28 397.2 339.89 400 320 400z"/>
  </symbol>
  <symbol id="chevron-down" xmlns="http://www.w3.org/2000/svg" viewBox="0 0 512 512">
      <path d="M239 401c9.4 9.4 24.6 9.4 33.9 0L465 209c9.4-9.4 9.4-24.6 0-33.9s-24.6-9.4-33.9 0l-175
      175L81 175c-9.4-9.4-24.6-9.4-33.9 0s-9.4 24.6 0 33.9L239 401z"/>
  </symbol>
</svg>

