<svg>
  <symbol id="users-medical" xmlns="http://www.w3.org/2000/svg" viewBox="0 0 640 512">
      <path d="M144 0a80 80 0 1 1 0 160A80 80 0 1 1 144 0zM512 0a80 80 0 1 1 0 160A80
      80 0 1 1 512 0zM0 298.7C0 239.8 47.8 192 106.7 192h42.7c15.9 0 31 3.5 44.6 9.7c-1.3
      7.2-1.9 14.7-1.9 22.3c0 38.2 16.8 72.5 43.3 96c-.2 0-.4 0-.7 0H21.3C9.6 320 0 310.4
      0 298.7zM405.3 320c-.2 0-.4 0-.7 0c26.6-23.5 43.3-57.8
      43.3-96c0-7.6-.7-15-1.9-22.3c13.6-6.3 28.7-9.7 44.6-9.7h42.7C592.2 192 640 239.8
      640 298.7c0 11.8-9.6 21.3-21.3 21.3H605.3c-6.6-18.6-24.4-32-45.3-32H528c-20.9 0-38.7
      13.4-45.3 32H405.3zm-26.7 32c19.3 0 37.6 4.1 54.2 11.5C422.5 372.3 416 385.4 416
      400v8.6c-11.3-5.5-23.9-8.6-37.3-8.6H261.3c-39.8 0-73.2 27.2-82.6 64H428.2c8.8 9.8
      21.6 16 35.8 16h16v16c0 5.6 1 11 2.7 16H154.7c-14.7 0-26.7-11.9-26.7-26.7C128 411.7
      187.7 352 261.3 352H378.7zM320 272a48 48 0 1 0 0-96 48 48 0 1 0 0 96zm0-144a96 96 0
      1 1 0 192 96 96 0 1 1 0-192zM512 336c0-8.8 7.2-16 16-16h32c8.8 0 16 7.2 16
      16v48h48c8.8 0 16 7.2 16 16v32c0 8.8-7.2 16-16 16H576v48c0 8.8-7.2 16-16 16H528c-8.8
      0-16-7.2-16-16V448H464c-8.8 0-16-7.2-16-16V400c0-8.8 7.2-16 16-16h48V336z"/>
  </symbol>
  <symbol id="phone-missed" xmlns="http://www.w3.org/2000/svg" viewBox="0 0 640 512">
      <path d="M120 0H232c13.3 0 24 10.7 24 24s-10.7 24-24 24H177.9l55.4 55.4C254.2 124.3
      282.5 136 312 136s57.8-11.7 78.6-32.6L487 7c9.4-9.4 24.6-9.4 33.9 0s9.4 24.6 0 33.9l-96.4
      96.4C394.7 167.2 354.2 184 312 184s-82.7-16.8-112.6-46.6L144 81.9V136c0 13.3-10.7
      24-24 24s-24-10.7-24-24V24c0-13.3 10.7-24 24-24zM448 392v49.3c0 3.9 2.8 7.2 6.6 7.9l85.8
      15.6c3.7 .7 7.4-1.3 8.8-4.8l24.7-58.8c7.4-17.6 2.5-30.9-4.4-36.9C520 321.8 432.8 272
      320 272s-200 49.8-249.5 92.3c-6.9 5.9-11.8 19.3-4.4 36.9L90.8 460c1.5 3.5 5.1 5.4 8.8
      4.8l85.8-15.6c3.8-.7 6.6-4 6.6-7.9V392c0-19.6 11.9-37.3 30.2-44.6c62.8-25.1 132.9-25.1
      195.7 0C436 354.7 448 372.4 448 392zm-48 49.3V392c-51.4-20.5-108.6-20.5-160 0v49.3c0
      27.1-19.4 50.3-46 55.1L108.2 512c-25.8 4.7-51.4-9.2-61.6-33.4L21.8 419.8c-13.5-32-8.9-69.3
      17.4-91.9C95 280 192.9 224 320 224s225 56 280.8 103.9c26.3 22.6 30.9 59.9 17.4 91.9l-24.8
      58.8c-10.2 24.2-35.8 38.1-61.6 33.4L446 496.4c-26.6-4.8-46-28-46-55.1z"/>
  </symbol>
  <symbol id="phone-arrow-right" xmlns="http://www.w3.org/2000/svg" viewBox="0 0 512 512">
      <path d="M329 286.7c11.3-13.8 30.3-18.5 46.7-11.4l112 48c17.6 7.5 27.4 26.5 23.4 45.1l-24 112c-4
      18.4-20.3 31.6-39.1 31.6l0 0c-6.1 0-12.2-.1-18.2-.4l-.1 0 0 0c-10-.4-19.8-1.1-29.6-2.2C175.2 485.6
      0 295.2 0 64v0C0 45.1 13.2 28.8 31.6 24.9l112-24c18.7-4 37.6 5.8 45.1 23.4l48 112c7 16.4 2.4
      35.4-11.4 46.7l-40.6 33.2c26.7 46 65.1 84.4 111.1 111.1L329 286.7zm133.8 78.1l-100.4-43L333
      357.6c-14.9 18.2-40.8 22.9-61.2 11.1c-53.3-30.9-97.7-75.3-128.6-128.6c-11.8-20.4-7.1-46.3
      11.1-61.2l35.9-29.4-43-100.4L48.1 70.5C51.5 286.2 225.8 460.5 441.5 464l21.3-99.2zM425 7l80
      80c9.4 9.4 9.4 24.6 0 33.9l-80 80c-9.4 9.4-24.6 9.4-33.9 0s-9.4-24.6 0-33.9l39-39H312c-13.3
      0-24-10.7-24-24s10.7-24 24-24H430.1L391 41c-9.4-9.4-9.4-24.6 0-33.9s24.6-9.4 33.9 0z"/>
  </symbol>
  <symbol id="smile" xmlns="http://www.w3.org/2000/svg" viewBox="0 0 512 512">
      <path d="M464 256A208 208 0 1 0 48 256a208 208 0 1 0 416 0zM0 256a256 256 0 1 1 512 0A256
      256 0 1 1 0 256zm177.6 62.1C192.8 334.5 218.8 352 256 352s63.2-17.5 78.4-33.9c9-9.7
      24.2-10.4 33.9-1.4s10.4 24.2 1.4 33.9c-22 23.8-60 49.4-113.6
      49.4s-91.7-25.5-113.6-49.4c-9-9.7-8.4-24.9 1.4-33.9s24.9-8.4 33.9 1.4zM144.4 208a32 32 0
      1 1 64 0 32 32 0 1 1 -64 0zm192-32a32 32 0 1 1 0 64 32 32 0 1 1 0-64z"/>
  </symbol>
  <symbol id="images-user" xmlns="http://www.w3.org/2000/svg" viewBox="0 0 576 512">
      <path d="M528 80H144V336h88l24-64H416l24 64h88V80zM144 32H528h48V80
      336v48H528 144 96V336 80 32h48zM48 96v24V432H456h24v48H456 24 0V456
      120 96H48zm224 80a64 64 0 1 1 128 0 64 64 0 1 1 -128 0z"/>
  </symbol>
  <symbol id="eye" xmlns="http://www.w3.org/2000/svg" viewBox="0 0 576 512">
     <path d="M288 144a110.94 110.94 0 0 0-31.24 5 55.4 55.4 0 0 1 7.24 27 56 56 0 0 1-56
     56 55.4 55.4 0 0 1-27-7.24A111.71 111.71 0 1 0 288 144zm284.52 97.4C518.29 135.59
     410.93 64 288 64S57.68 135.64 3.48 241.41a32.35 32.35 0 0 0 0 29.19C57.71 376.41
     165.07 448 288 448s230.32-71.64 284.52-177.41a32.35 32.35 0 0 0 0-29.19zM288
     400c-98.65 0-189.09-55-237.93-144C98.91 167 189.34 112 288 112s189.09 55 237.93
     144C477.1 345 386.66 400 288 400z"/>
  </symbol>
  <symbol id="mapPin" xmlns="http://www.w3.org/2000/svg" viewBox="0 0 384 512">
    <path d="M172.268 501.67C26.97 291.031 0 269.413 0 192 0 85.961 85.961 0 192 0s192 85.961 192 192c0 77.413-26.97 99.031-172.268 309.67-9.535 13.774-29.93 13.773-39.464 0zM192 272c44.183 0 80-35.817 80-80s-35.817-80-80-80-80 35.817-80 80 35.817 80 80 80z"/>
  </symbol>

  <symbol id="facebook" xmlns="http://www.w3.org/2000/svg" viewBox="0 0 155.139 155.139">
	  <path id="f_1_" d="M89.584,155.139V84.378h23.742l3.562-27.585H89.584V39.184
		c0-7.984,2.208-13.425,13.67-13.425l14.595-0.006V1.08C115.325,0.752,106.661,0,96.577,0C75.52,0,61.104,12.853,61.104,36.452
		v20.341H37.29v27.585h23.814v70.761H89.584z"/>
  </symbol>

  <symbol id="instagram" viewBox="0 0 512 512" xmlns="http://www.w3.org/2000/svg">
    <path d="m256 120.5c-74.714844 0-135.5 60.785156-135.5 135.5s60.785156 135.5 135.5 135.5 135.5-60.785156 135.5-135.5-60.785156-135.5-135.5-135.5zm0 241c-58.171875 0-105.5-47.328125-105.5-105.5s47.328125-105.5 105.5-105.5c58.175781 0 105.5 47.328125 105.5 105.5s-47.324219 105.5-105.5 105.5zm0 0"/><path d="m460.410156 51.589844c-33.265625-33.269532-77.332031-51.589844-124.074218-51.589844h-160.671876c-46.742187 0-90.808593 18.320312-124.074218 51.589844-33.269532 33.265625-51.589844 77.332031-51.589844 124.074218v160.667969c0 46.746094 18.320312 90.8125 51.589844 124.078125 33.265625 33.269532 77.332031 51.589844 124.074218 51.589844h160.671876c46.742187 0 90.808593-18.320312 124.074218-51.589844 33.269532-33.265625 51.589844-77.332031 51.589844-124.078125v-160.667969c0-46.742187-18.320312-90.808593-51.589844-124.074218zm21.589844 284.742187c0 80.320313-65.347656 145.667969-145.664062 145.667969h-160.671876c-80.316406 0-145.664062-65.347656-145.664062-145.667969v-160.667969c0-80.316406 65.347656-145.664062 145.664062-145.664062h160.671876c80.316406 0 145.664062 65.347656 145.664062 145.664062zm0 0"/><path d="m395.511719 101.488281c-3.953125 0-7.820313 1.609375-10.613281 4.402344-2.789063 2.789063-4.386719 6.660156-4.386719 10.597656 0 3.949219 1.597656 7.820313 4.386719 10.609375 2.792968 2.792969 6.660156 4.390625 10.613281 4.390625 3.9375 0 7.808593-1.597656 10.597656-4.390625 2.789063-2.789062 4.402344-6.660156 4.402344-10.609375 0-3.9375-1.613281-7.808593-4.402344-10.597656s-6.660156-4.402344-10.597656-4.402344zm0 0"/>
  </symbol>

  <symbol id="phone" xmlns="http://www.w3.org/2000/svg" viewBox="0 0 480.56 480.56">
    <path d="M365.354,317.9c-15.7-15.5-35.3-15.5-50.9,0c-11.9,11.8-23.8,23.6-35.5,35.6c-3.2,3.3-5.9,4-9.8,1.8
      c-7.7-4.2-15.9-7.6-23.3-12.2c-34.5-21.7-63.4-49.6-89-81c-12.7-15.6-24-32.3-31.9-51.1c-1.6-3.8-1.3-6.3,1.8-9.4
      c11.9-11.5,23.5-23.3,35.2-35.1c16.3-16.4,16.3-35.6-0.1-52.1c-9.3-9.4-18.6-18.6-27.9-28c-9.6-9.6-19.1-19.3-28.8-28.8
      c-15.7-15.3-35.3-15.3-50.9,0.1c-12,11.8-23.5,23.9-35.7,35.5c-11.3,10.7-17,23.8-18.2,39.1c-1.9,24.9,4.2,48.4,12.8,71.3
      c17.6,47.4,44.4,89.5,76.9,128.1c43.9,52.2,96.3,93.5,157.6,123.3c27.6,13.4,56.2,23.7,87.3,25.4c21.4,1.2,40-4.2,54.9-20.9
      c10.2-11.4,21.7-21.8,32.5-32.7c16-16.2,16.1-35.8,0.2-51.8C403.554,355.9,384.454,336.9,365.354,317.9z"/>
    <path d="M346.254,238.2l36.9-6.3c-5.8-33.9-21.8-64.6-46.1-89c-25.7-25.7-58.2-41.9-94-46.9l-5.2,37.1
      c27.7,3.9,52.9,16.4,72.8,36.3C329.454,188.2,341.754,212,346.254,238.2z"/>
    <path d="M403.954,77.8c-42.6-42.6-96.5-69.5-156-77.8l-5.2,37.1c51.4,7.2,98,30.5,134.8,67.2c34.9,34.9,57.8,79,66.1,127.5
      l36.9-6.3C470.854,169.3,444.354,118.3,403.954,77.8z"/>
  </symbol>

  <symbol id="messenger" xmlns="http://www.w3.org/2000/svg" viewBox="0 0 512 512">
    <path d="M256.55 8C116.52 8 8 110.34 8 248.57c0 72.3 29.71 134.78 78.07 177.94 8.35
    7.51 6.63 11.86 8.05 58.23A19.92 19.92 0 0 0 122 502.31c52.91-23.3 53.59-25.14
    62.56-22.7C337.85 521.8 504 423.7 504 248.57 504 110.34 396.59 8 256.55 8zm149.24
    185.13l-73 115.57a37.37 37.37 0 0 1-53.91 9.93l-58.08-43.47a15 15 0 0 0-18 0l-78.37
    59.44c-10.46 7.93-24.16-4.6-17.11-15.67l73-115.57a37.36 37.36 0 0 1 53.91-9.93l58.06
    43.46a15 15 0 0 0 18 0l78.41-59.38c10.44-7.98 24.14 4.54 17.09 15.62z"/>
  </symbol>
  <symbol id="admin" xmlns="http://www.w3.org/2000/svg" viewBox="0 0 448 512">
    <path d="M352 0l-64 32-64-32-64 32L96 0v96h256V0zm-38.4 304h-16.71c-22.24 10.18-46.88
    16-72.89 16s-50.65-5.82-72.89-16H134.4C60.17 304 0 364.17 0 438.4V464c0 26.51 21.49
    48 48 48h352c26.51 0 48-21.49 48-48v-25.6c0-74.23-60.17-134.4-134.4-134.4zM224
    272c70.69 0 128-57.31 128-128v-16H96v16c0 70.69 57.31 128 128 128z"/>
  </symbol>
  <symbol id="logout" xmlns="http://www.w3.org/2000/svg" viewBox="0 0 512 512">
    <path d="M272 112v51.6h-96c-26.5 0-48 21.5-48 48v88.6c0 26.5 21.5 48 48 48h96v51.6c0
    42.6 51.7 64.2 81.9 33.9l144-143.9c18.7-18.7 18.7-49.1 0-67.9l-144-144C323.8 48 272
    69.3 272 112zm192 144L320 400v-99.7H176v-88.6h144V112l144 144zM96 64h84c6.6 0 12 5.4
    12 12v24c0 6.6-5.4 12-12 12H96c-26.5 0-48 21.5-48 48v192c0 26.5 21.5 48 48 48h84c6.6
    0 12 5.4 12 12v24c0 6.6-5.4 12-12 12H96c-53 0-96-43-96-96V160c0-53 43-96 96-96z"/>
  </symbol>
  <symbol id="login" xmlns="http://www.w3.org/2000/svg" viewBox="0 0 512 512">
    <path d="M144 112v51.6H48c-26.5 0-48 21.5-48 48v88.6c0 26.5 21.5 48 48 48h96v51.6c0
    42.6 51.7 64.2 81.9 33.9l144-143.9c18.7-18.7 18.7-49.1 0-67.9l-144-144C195.8 48 144
    69.3 144 112zm192 144L192 400v-99.7H48v-88.6h144V112l144 144zm80 192h-84c-6.6
    0-12-5.4-12-12v-24c0-6.6 5.4-12 12-12h84c26.5 0 48-21.5
    48-48V160c0-26.5-21.5-48-48-48h-84c-6.6 0-12-5.4-12-12V76c0-6.6 5.4-12 12-12h84c53 0
    96 43 96 96v192c0 53-43 96-96 96z"/>
  </symbol>
  <symbol id="trash" xmlns="http://www.w3.org/2000/svg" viewBox="0 0 448 512">
    <path d="M268 416h24a12 12 0 0 0 12-12V188a12 12 0 0 0-12-12h-24a12 12 0 0 0-12
    12v216a12 12 0 0 0 12 12zM432 80h-82.41l-34-56.7A48 48 0 0 0 274.41 0H173.59a48 48 0 0
    0-41.16 23.3L98.41 80H16A16 16 0 0 0 0 96v16a16 16 0 0 0 16 16h16v336a48 48 0 0 0 48
    48h288a48 48 0 0 0 48-48V128h16a16 16 0 0 0 16-16V96a16 16 0 0 0-16-16zM171.84 50.91A6
    6 0 0 1 177 48h94a6 6 0 0 1 5.15 2.91L293.61 80H154.39zM368
    464H80V128h288zm-212-48h24a12 12 0 0 0 12-12V188a12 12 0 0 0-12-12h-24a12 12 0 0 0-12
    12v216a12 12 0 0 0 12 12z"/>
  </symbol>
  <symbol id="archive" xmlns="http://www.w3.org/2000/svg" viewBox="0 0 512 512">
    <path d="M464 32H48C21.5 32 0 53.5 0 80v80c0 8.8 7.2 16 16 16h16v272c0 17.7 14.3
    32 32 32h384c17.7 0 32-14.3 32-32V176h16c8.8 0 16-7.2
    16-16V80c0-26.5-21.5-48-48-48zm-32 400H80V176h352v256zm32-304H48V80h416v48zM204
    272h104c6.6 0 12-5.4 12-12v-24c0-6.6-5.4-12-12-12H204c-6.6 0-12 5.4-12 12v24c0
    6.6 5.4 12 12 12z"/>
  </symbol>
  <symbol id="edit" xmlns="http://www.w3.org/2000/svg" viewBox="0 0 576 512">
    <path d="M402.3 344.9l32-32c5-5 13.7-1.5 13.7 5.7V464c0 26.5-21.5 48-48 48H48c-26.5 0-48-21.5-48-48V112c0-26.5
    21.5-48 48-48h273.5c7.1 0 10.7 8.6 5.7 13.7l-32 32c-1.5 1.5-3.5 2.3-5.7 2.3H48v352h352V350.5c0-2.1.8-4.1
    2.3-5.6zm156.6-201.8L296.3 405.7l-90.4 10c-26.2 2.9-48.5-19.2-45.6-45.6l10-90.4L432.9 17.1c22.9-22.9 59.9-22.9
    82.7 0l43.2 43.2c22.9 22.9 22.9 60 .1 82.8zM460.1 174L402 115.9 216.2 301.8l-7.3 65.3 65.3-7.3L460.1
    174zm64.8-79.7l-43.2-43.2c-4.1-4.1-10.8-4.1-14.8 0L436 82l58.1 58.1 30.9-30.9c4-4.2 4-10.8-.1-14.9z"/>
  </symbol>
  <symbol id="hide" xmlns="http://www.w3.org/2000/svg" viewBox="0 0 640 512">
    <path d="M634 471L36 3.51A16 16 0 0 0 13.51 6l-10 12.49A16 16 0 0 0 6 41l598
    467.49a16 16 0 0 0 22.49-2.49l10-12.49A16 16 0 0 0 634 471zM296.79
    146.47l134.79 105.38C429.36 191.91 380.48 144 320 144a112.26 112.26 0 0
    0-23.21 2.47zm46.42 219.07L208.42 260.16C210.65 320.09 259.53 368 320
    368a113 113 0 0 0 23.21-2.46zM320 112c98.65 0 189.09 55 237.93 144a285.53
    285.53 0 0 1-44 60.2l37.74 29.5a333.7 333.7 0 0 0 52.9-75.11 32.35 32.35 0 0
    0 0-29.19C550.29 135.59 442.93 64 320 64c-36.7 0-71.71 7-104.63 18.81l46.41
    36.29c18.94-4.3 38.34-7.1 58.22-7.1zm0
    288c-98.65 0-189.08-55-237.93-144a285.47 285.47 0 0 1
    44.05-60.19l-37.74-29.5a333.6 333.6 0 0 0-52.89 75.1 32.35 32.35 0 0 0 0
    29.19C89.72 376.41 197.08 448 320 448c36.7 0 71.71-7.05
    104.63-18.81l-46.41-36.28C359.28 397.2 339.89 400 320 400z"/>
  </symbol>
</svg>

